<?xml version="1.0" encoding="utf-8"?>
<!-- Generator: Adobe Illustrator 23.0.6, SVG Export Plug-In . SVG Version: 6.00 Build 0)  -->
<svg version="1.1" id="Layer_1" xmlns="http://www.w3.org/2000/svg" xmlns:xlink="http://www.w3.org/1999/xlink" x="0px" y="0px"
	 viewBox="0 0 235.8 235.8" style="enable-background:new 0 0 235.8 235.8;" xml:space="preserve">
<g>
	<g id="Layer_1-2">
		<polygon points="235.7,15.9 117.9,220 117.9,196.9 215.8,27.4 6.7,27.4 0.1,15.9 		"/>
		<polygon points="117.9,36.1 36.7,36.1 117.9,176.7 117.9,153.7 56.7,47.6 117.9,47.6 192.4,47.6 199.1,36.1 		"/>
	</g>
</g>
<g>
	<g id="Layer_1-2_1_">
		<polygon points="79.9,-836.1 -37.9,-632 -37.9,-655.1 60,-824.6 -149.1,-824.6 -155.8,-836.1 		"/>
		<polygon points="-37.9,-815.9 -119.1,-815.9 -37.9,-675.3 -37.9,-698.3 -99.2,-804.4 -37.9,-804.4 36.6,-804.4 43.2,-815.9 		"/>
	</g>
</g>
<g>
	<polygon points="456.7,-836.1 444.8,-815.5 397.8,-734.1 350.8,-652.7 338.9,-632 331,-645.7 359.6,-695.3 406.6,-776.8 
		418.5,-797.4 418.4,-797.4 421,-801.8 432.9,-822.4 228.9,-822.4 221,-836.1 	"/>
	<polygon points="422.1,-815.3 411.8,-797.4 410.2,-794.7 380.5,-743.2 350.8,-691.7 338.9,-671 334.3,-678.9 334.3,-679 
		331,-684.7 339.6,-699.5 386.6,-780.9 388.1,-783.6 396.1,-797.4 398.5,-801.5 256.8,-801.5 259.3,-797.4 261,-794.4 267.2,-783.6 
		267.2,-783.6 268.9,-780.7 268.9,-780.7 271.3,-776.5 271.3,-776.5 279.2,-762.8 286.6,-750 316.3,-698.5 316.4,-698.4 
		319.7,-692.7 324.3,-684.8 324.3,-684.7 327.7,-678.9 327.7,-678.9 330.9,-673.3 331,-673.2 335.6,-665.2 327.7,-651.4 327,-652.7 
		323,-659.4 323,-659.5 319.7,-665.2 319.7,-665.2 316.4,-670.9 316.3,-671.1 311.8,-678.9 308.5,-684.7 304.4,-691.7 279.9,-734.1 
		263.4,-762.8 263.4,-762.8 255.4,-776.5 253,-780.7 251.3,-783.6 245.1,-794.4 245,-794.7 243.4,-797.4 241,-801.5 236.9,-808.7 
		236.9,-808.7 233.1,-815.3 	"/>
</g>
<polygon points="833.5,-836.1 821.6,-815.5 800.7,-779.4 792.8,-765.7 788.7,-758.6 780.8,-744.8 774.6,-734.1 727.6,-652.7 
	723.6,-645.8 715.7,-632 714,-634.9 707.8,-645.7 704.5,-651.4 703.8,-652.7 699.8,-659.5 696.5,-665.2 696.5,-665.2 693.1,-671.1 
	689.5,-677.4 673,-706 672.9,-706 665,-719.8 662.6,-724 660.9,-726.9 654.7,-737.7 654.5,-738 653,-740.6 650.6,-744.8 
	646.5,-751.9 646.4,-751.9 642.6,-758.6 640.2,-762.8 640.2,-762.8 632.2,-776.5 629.8,-780.7 628.1,-783.6 621.9,-794.4 
	621.8,-794.7 620.2,-797.4 617.8,-801.5 613.7,-808.7 613.7,-808.7 609.9,-815.3 798.9,-815.3 788.6,-797.4 787,-794.7 
	778.2,-779.4 770.3,-765.7 766.2,-758.6 758.3,-744.8 757.3,-743.2 727.6,-691.7 715.7,-671 711.1,-678.9 711.1,-679 707.8,-684.7 
	716.4,-699.5 742.5,-744.8 750.5,-758.6 754.6,-765.7 762.5,-779.4 763.4,-780.9 764.9,-783.6 772.9,-797.4 775.3,-801.5 
	633.6,-801.5 636.1,-797.4 637.8,-794.4 644,-783.6 644,-783.6 645.7,-780.7 645.7,-780.7 646.4,-779.4 648.1,-776.5 648.1,-776.5 
	654.4,-765.7 656,-762.8 658.5,-758.6 663.4,-750 666.4,-744.8 668.8,-740.6 670.5,-737.7 676.8,-726.9 678.4,-724 680.9,-719.8 
	688.8,-706 693.1,-698.5 696.2,-693.3 712.4,-665.2 715.7,-659.5 736.4,-695.3 765,-744.8 772.9,-758.6 777,-765.7 783.4,-776.8 
	785,-779.4 795.3,-797.4 795.2,-797.4 797.8,-801.8 809.7,-822.4 605.7,-822.4 597.8,-836.1 "/>
</svg>
